<?xml version="1.0" encoding="utf-8"?>
<!-- Generator: Adobe Illustrator 26.5.0, SVG Export Plug-In . SVG Version: 6.00 Build 0)  -->
<svg version="1.1" id="Layer_1" xmlns="http://www.w3.org/2000/svg" xmlns:xlink="http://www.w3.org/1999/xlink" x="0px" y="0px"
	 viewBox="0 0 800 800" style="enable-background:new 0 0 800 800;" xml:space="preserve">
<path d="M201.35,583.44c-13.24-28.39-26.33-56.44-39.5-84.67c2.94-1.38,5.7-2.68,8.47-3.97c75.91-35.37,151.83-70.74,227.73-106.15
	c1.36-0.64,2.34-0.55,3.66,0.06c77.78,36.27,155.59,72.51,233.39,108.75c0.82,0.38,1.63,0.8,2.71,1.34
	c-26.01,55.73-51.98,111.39-78.06,167.29c0.58,0.1,0.88,0.22,1.17,0.2c9.21-0.6,18.46-0.91,27.62-1.93
	c7.84-0.87,15.64-2.36,23.38-3.94c12.08-2.46,23.79-6.24,35.36-10.49c19.09-7.02,36.31-17.65,53.89-27.58
	c5.57-3.15,10.44-3.12,14.1,0.34c4.86,4.6,5.45,13.08-2.56,17.57c-6.82,3.82-13.58,7.77-20.56,11.3
	c-12.31,6.22-24.56,12.65-37.23,18.06c-9.36,4-19.24,6.91-29.07,9.63c-23.13,6.4-46.89,8.19-70.77,8.31
	c-17.76,0.09-35.44-1.16-52.98-4.27c-34.42-6.11-66.32-18.65-95.98-37.07c-17.51-10.88-36.04-19.71-55.45-26.61
	c-18.94-6.73-38.38-11.48-58.32-14.28c-26.81-3.77-53.66-3.38-80.55-1.4c-16.08,1.18-31.89,4.06-47.45,8.16
	c-23.1,6.09-45.14,14.91-65.96,26.67c-5.65,3.2-11.16,2.9-14.69-0.87c-4.63-4.95-3.95-12.68,1.95-16.12
	c7.53-4.39,15.26-8.53,23.17-12.18c8.59-3.96,17.36-7.68,26.32-10.7c10.78-3.63,21.75-6.85,32.82-9.44
	c10.19-2.38,20.63-3.7,30.96-5.49C199.56,583.85,200.2,583.68,201.35,583.44z"/>
<path d="M229.36,446.74c0-44.2,0-87.85,0-131.69c113.62,0,227.14,0,340.83,0c0.04,0.84,0.1,1.64,0.1,2.45
	c0.03,41.92,0.05,83.83,0.07,125.75c0,3.39-0.11,3.39-3.32,1.86c-12.47-5.92-24.96-11.78-37.44-17.67
	c-17.14-8.09-34.28-16.18-51.42-24.27c-13.68-6.46-27.36-12.93-41.05-19.37c-8.27-3.89-16.52-7.84-24.87-11.56
	c-9.08-4.04-18.15-3.42-27.04,0.76c-19.11,8.99-38.21,17.99-57.3,27.01c-18.94,8.95-37.86,17.95-56.8,26.91
	c-12.63,5.97-25.27,11.9-37.9,17.85C232.04,445.33,230.89,445.96,229.36,446.74z"/>
<path d="M483.57,273.2c-10.91-10.42-21.81-20.82-32.68-31.21c-33.82,19.28-67.4,19.08-101.18-0.74
	c-10.47,10.96-21.08,22.08-31.88,33.39c-9.43-9.01-18.75-17.91-28.3-27.04c10.97-11.51,21.85-22.93,32.56-34.17
	c-19.84-34.42-19.57-68.4,0.75-102.57c-11.08-10.6-22.31-21.34-33.64-32.17c9.03-9.47,17.94-18.8,27-28.31
	c1.56,1.47,3.12,2.91,4.66,4.38c9.51,9.1,19.04,18.17,28.51,27.32c1.21,1.17,2.02,1.41,3.58,0.48
	c16.31-9.75,34.02-14.12,52.97-13.14c15.74,0.82,30.38,5.41,43.83,13.67c0.7,0.43,1.4,0.87,2.25,1.4
	c9.99-10.46,19.92-20.87,30.1-31.53c9.45,9.02,18.81,17.95,28.3,27c-2.19,2.32-4.27,4.56-6.38,6.77
	c-7.53,7.9-15.03,15.83-22.63,23.66c-1.36,1.4-1.68,2.31-0.56,4.15c9.8,16.08,14.17,33.63,13.37,52.38
	c-0.69,16.26-5.39,31.38-14.02,45.23c-0.43,0.7-0.89,1.39-1.44,2.24c4.9,4.69,9.76,9.34,14.62,13.99c5.24,5,10.48,10.01,15.75,14.99
	c1.01,0.95,1.67,1.68,0.37,3.04c-8.45,8.75-16.83,17.56-25.23,26.35C484.08,272.94,483.83,273.04,483.57,273.2z M344.62,162.86
	c0.11,31.13,25.19,56.18,56.25,56.18c31.12,0,56.46-25.38,56.34-56.41c-0.12-31.12-25.46-56.3-56.57-56.23
	C369.71,106.46,344.51,131.87,344.62,162.86z"/>
<path d="M554.03,762.56c-13.8-0.82-27.64-1.15-41.37-2.6c-11.4-1.2-22.77-3.22-33.94-5.8c-11.97-2.76-23.8-6.25-35.48-10.06
	c-17.03-5.56-33.18-13.23-48.88-21.87c-13.62-7.5-27.16-15.16-40.98-22.27c-12.36-6.36-25.4-11.16-38.87-14.72
	c-29.05-7.69-58.62-9.68-88.46-7.59c-11.78,0.82-23.58,2.13-35.18,4.29c-9.85,1.83-19.52,4.86-29.07,7.98
	c-20.12,6.57-38.38,17.11-56.76,27.34c-2.83,1.58-5.68,3.14-8.57,4.6c-6.13,3.11-13.01,0.44-15.38-5.91
	c-1.74-4.64,0.72-10.17,5.82-13.02c4.94-2.75,9.85-5.56,14.87-8.18c11.13-5.81,22.19-11.77,33.5-17.21
	c12.15-5.85,24.9-10.19,37.99-13.54c31.4-8.03,63.31-9.47,95.49-7.72c15.35,0.84,30.47,3.26,45.38,6.92
	c16.35,4,32.15,9.61,47.49,16.59c13.9,6.32,26.81,14.39,39.95,22.05c15.13,8.82,31.03,16.03,47.52,21.84
	c19.19,6.76,38.88,11.57,59.09,14.32c24.97,3.4,50.03,3.39,75.08,1.96c14.89-0.85,29.58-3.46,44.13-6.87
	c26.51-6.22,51.49-16.23,75.25-29.44c6.27-3.49,13.13-1.1,15.92,5.49c1.7,4.02-0.39,10.1-4.83,12.49
	c-8.79,4.72-17.64,9.33-26.66,13.59c-12.72,6.01-25.92,10.93-39.49,14.59c-11.71,3.16-23.63,5.62-35.53,7.99
	c-15.4,3.06-31.05,3.93-46.73,4.25c-3.75,0.08-7.5,0.01-11.25,0.01C554.05,762.21,554.04,762.39,554.03,762.56z"/>
</svg>
