<?xml version="1.0" encoding="utf-8"?>
<!-- Generator: Adobe Illustrator 26.5.0, SVG Export Plug-In . SVG Version: 6.00 Build 0)  -->
<svg version="1.1" id="Layer_1" xmlns="http://www.w3.org/2000/svg" xmlns:xlink="http://www.w3.org/1999/xlink" x="0px" y="0px"
	 viewBox="0 0 800 800" style="enable-background:new 0 0 800 800;" xml:space="preserve">
<path d="M438.52,246.89c-3.36,1.47-6.63,2.86-9.84,4.36c-0.49,0.23-0.83,0.93-1.08,1.48c-0.16,0.34-0.03,0.81-0.03,1.21
	c0,19.24,0,38.47,0,57.71c0,0.76,0,1.51,0,2.51c0.8,0,1.48,0,2.16,0c15.9,0,31.81-0.02,47.71,0.01c2.98,0.01,5.79,0.73,7.29,3.58
	c0.71,1.34,1.17,2.98,1.18,4.49c0.1,10.06,0.09,20.11,0.04,30.17c-0.03,5.01-3.23,8.04-8.38,8.04c-15.9,0.02-31.81,0.01-47.71,0.01
	c-0.69,0-1.38,0-2.29,0c0,0.84,0,1.52,0,2.2c0,49.17-0.01,98.35,0,147.52c0,15.67,0.1,31.34,0.09,47
	c-0.03,34.08-0.1,68.17-0.16,102.25c0,2.13-0.02,2.09,2.02,1.71c5.34-1,10.75-1.7,16.01-2.99c7.53-1.85,15.05-3.83,22.4-6.27
	c11.55-3.83,22.56-8.95,32.99-15.24c12.34-7.44,23.53-16.28,32.89-27.32c6.74-7.95,12.21-16.66,16.06-26.36
	c0.17-0.43,0.39-0.83,0.72-1.53c-0.8-0.09-1.44-0.22-2.08-0.22c-9.18-0.01-18.36,0.02-27.54-0.02c-6.66-0.03-11.28-5.2-10.59-11.8
	c0.29-2.77,1.91-4.83,3.8-6.72c13.81-13.81,27.61-27.62,41.42-41.44c4.75-4.76,9.5-9.52,14.26-14.27
	c5.26-5.24,11.04-5.35,16.32-0.09c18.68,18.61,37.26,37.32,55.99,55.89c6.19,6.14,3.8,14.18-1.51,16.99
	c-1.63,0.86-3.64,1.36-5.49,1.39c-8.48,0.15-16.96,0.09-25.43,0.04c-1.42-0.01-2.09,0.43-2.39,1.87c-1.97,9.35-5.13,18.3-9.07,26.99
	c-9.6,21.13-23.75,38.77-41.27,53.81c-15.58,13.38-32.94,23.9-51.69,32.21c-10.26,4.55-20.72,8.57-31.52,11.53
	c-9.05,2.48-18.23,4.62-27.46,6.29c-8.84,1.59-17.79,2.9-26.75,3.39c-12.12,0.66-24.32,0.99-36.43,0.41
	c-14.06-0.68-27.98-2.98-41.72-6.19c-10.64-2.48-21.09-5.53-31.36-9.26c-14.14-5.14-27.7-11.48-40.56-19.29
	c-23.92-14.52-44.22-32.86-59.16-56.75c-5.81-9.29-10.43-19.18-13.94-29.55c-1.51-4.47-2.57-9.09-3.73-13.67
	c-0.34-1.33-0.94-1.79-2.29-1.78c-8.54,0.05-17.07,0.05-25.61,0.01c-6.64-0.03-11.26-5.27-10.53-11.86
	c0.31-2.77,1.94-4.82,3.83-6.71c13.73-13.72,27.45-27.45,41.18-41.18c4.84-4.84,9.67-9.68,14.52-14.51
	c5.26-5.23,11.08-5.29,16.32-0.06c18.58,18.54,37.13,37.13,55.68,55.69c2.29,2.29,3.99,4.83,3.93,8.29
	c-0.11,5.7-4.52,10.28-10.22,10.31c-9.24,0.06-18.48,0.02-27.71,0.02c-0.68,0-1.35,0-2.57,0c1.79,3.76,3.25,7.16,4.98,10.42
	c8.86,16.72,21.92,29.53,37.37,40.13c9.13,6.26,18.83,11.52,29.07,15.68c6.74,2.74,13.67,5.03,20.59,7.29
	c9.74,3.18,19.8,4.97,29.9,6.57c1,0.16,1.45-0.04,1.41-1.09c-0.03-0.88-0.02-1.75-0.02-2.63c0-30.99,0.02-61.98-0.01-92.97
	c-0.01-16.95-0.15-33.9-0.14-50.86c0.01-50.17,0.06-100.33,0.09-150.5c0-0.86,0-1.73,0-2.79c-0.86,0-1.54,0-2.23,0
	c-15.85,0-31.69,0.01-47.54-0.01c-2.98,0-5.81-0.65-7.33-3.51c-0.74-1.38-1.23-3.08-1.25-4.64c-0.11-10-0.09-20-0.04-29.99
	c0.02-5.11,3.21-8.14,8.45-8.15c15.9-0.01,31.81,0,47.71,0c0.69,0,1.37,0,2.22,0c0-0.83,0-1.47,0-2.1c0-19.41-0.02-38.82,0.04-58.24
	c0-1.54-0.47-2.23-1.88-2.79c-3.08-1.24-6.1-2.64-9.07-4.13c-1.01-0.51-1.49-0.31-2.19,0.43c-6.56,6.92-13.15,13.8-19.73,20.69
	c-3.18,3.33-7.87,3.77-11.24,0.65c-7.41-6.88-14.71-13.89-21.92-20.97c-3.08-3.03-2.84-7.95,0.23-11.19
	c6.84-7.21,13.69-14.42,20.58-21.57c0.87-0.91,0.97-1.55,0.42-2.67c-7.47-15.24-10.49-31.27-7.94-48.13
	c1.4-9.27,4.07-18.21,8.59-26.51c0.16-0.3,0.31-0.61,0.51-1c-5.23-5-10.42-9.97-15.61-14.94c-1.44-1.37-2.9-2.72-4.31-4.12
	c-3.5-3.46-3.56-8.24-0.15-11.82c6.66-6.98,13.32-13.96,19.98-20.93c3.3-3.45,8.13-3.58,11.66-0.23
	c6.62,6.27,13.21,12.58,19.81,18.88c0.29,0.28,0.59,0.56,0.91,0.86c26.02-12.99,51.95-12.93,77.94,0.41
	c0.91-0.89,1.93-1.83,2.89-2.83c5.37-5.62,10.74-11.25,16.09-16.89c3.68-3.87,8.66-4,12.52-0.32c7.02,6.7,14.04,13.4,21.06,20.1
	c3.17,3.02,3.12,7.84-0.14,11.27c-6.4,6.74-12.8,13.48-19.27,20.16c-0.95,0.98-0.96,1.65-0.38,2.83
	c6.21,12.52,9.31,25.79,8.71,39.77c-0.52,12.09-3.59,23.62-9.2,34.39c-0.55,1.05-0.42,1.58,0.39,2.34
	c6.79,6.43,13.59,12.86,20.26,19.42c1.22,1.2,2.16,2.9,2.68,4.55c0.93,2.92-0.21,5.33-2.37,7.51c-5.63,5.7-11.1,11.55-16.63,17.34
	c-1.01,1.06-2,2.13-3.02,3.18c-3.76,3.85-8.28,3.97-12.17,0.28c-6.99-6.64-13.97-13.31-20.95-19.97
	C439.18,247.5,438.79,247.15,438.52,246.89z M436.59,175.61c0.53-19.77-16.7-37.05-36.92-36.99c-19.83,0.07-36.85,16.76-36.85,37
	c0,20.46,17.38,36.94,36.86,36.99C419.6,212.67,437.13,195.57,436.59,175.61z"/>
</svg>
